<svg width="42" height="47" viewBox="0 0 42 47" fill="none" xmlns="http://www.w3.org/2000/svg">
    <g filter="url(#filter0_d_46_3102)">
        <path d="M18.1588 22.123L26.5999 17.6L20.2646 23.6879L19.9664 26.4729L21.6918 24.8034L27.3274 29.3877L30.1657 14.2026L14.3771 20.7718L18.1588 22.123Z" fill="white"/>
        <path d="M34.4498 5H6.95009C5.43786 5 4.19995 6.27542 4.19995 7.83348V36.1665C4.19995 37.7246 5.43786 39 6.95009 39H34.4498C35.962 39 37.2 37.7246 37.2 36.1665V7.83348C37.2 6.27542 35.962 5 34.4498 5ZM29.1624 32.7134C29.1624 32.7134 28.6146 34.2103 27.1081 33.4924L21.5377 28.8246L17.9659 32.3857C17.9659 32.3857 17.6866 32.6169 17.3806 32.4716C17.3806 32.4716 17.1174 32.444 16.7874 31.3096C16.4595 30.1711 14.7892 24.1875 14.7892 24.1875L9.25968 22.1526C9.25968 22.1526 8.41075 21.8232 8.33031 21.1049C8.2474 20.3871 9.28896 19.997 9.28896 19.997L31.2674 10.573C31.2674 10.573 33.075 9.7056 33.075 11.1417L29.1624 32.7134Z" fill="white"/>
    </g>
    <defs>
        <filter id="filter0_d_46_3102" x="-4" y="0" width="50" height="50" filterUnits="userSpaceOnUse" color-interpolation-filters="sRGB">
            <feFlood flood-opacity="0" result="BackgroundImageFix"/>
            <feColorMatrix in="SourceAlpha" type="matrix" values="0 0 0 0 0 0 0 0 0 0 0 0 0 0 0 0 0 0 127 0" result="hardAlpha"/>
            <feOffset dy="4"/>
            <feGaussianBlur stdDeviation="2"/>
            <feComposite in2="hardAlpha" operator="out"/>
            <feColorMatrix type="matrix" values="0 0 0 0 1 0 0 0 0 1 0 0 0 0 1 0 0 0 0.1 0"/>
            <feBlend mode="normal" in2="BackgroundImageFix" result="effect1_dropShadow_46_3102"/>
            <feBlend mode="normal" in="SourceGraphic" in2="effect1_dropShadow_46_3102" result="shape"/>
        </filter>
    </defs>
</svg>
