<svg width="33" height="35" viewBox="0 0 33 35" fill="none" xmlns="http://www.w3.org/2000/svg">
    <path d="M4.71429 0.3125C2.11406 0.3125 0 2.49062 0 5.16964V29.4554C0 32.1344 2.11406 34.3125 4.71429 34.3125H28.2857C30.8859 34.3125 33 32.1344 33 29.4554V5.16964C33 2.49062 30.8859 0.3125 28.2857 0.3125H4.71429ZM26.5989 6.6875L18.9529 15.6884L27.9469 27.9375H20.9049L15.3951 20.5076L9.08237 27.9375H5.58348L13.7598 18.3067L5.13415 6.6875H12.3529L17.3397 13.4799L23.1 6.6875H26.5989ZM23.8145 25.7821L11.2996 8.72902H9.21496L21.8699 25.7821H23.8071H23.8145Z" fill="white"/>
    <path d="M4.71429 0.3125C2.11406 0.3125 0 2.49062 0 5.16964V29.4554C0 32.1344 2.11406 34.3125 4.71429 34.3125H28.2857C30.8859 34.3125 33 32.1344 33 29.4554V5.16964C33 2.49062 30.8859 0.3125 28.2857 0.3125H4.71429ZM26.5989 6.6875L18.9529 15.6884L27.9469 27.9375H20.9049L15.3951 20.5076L9.08237 27.9375H5.58348L13.7598 18.3067L5.13415 6.6875H12.3529L17.3397 13.4799L23.1 6.6875H26.5989ZM23.8145 25.7821L11.2996 8.72902H9.21496L21.8699 25.7821H23.8071H23.8145Z" stroke="black"/>
</svg>
